<?xml version="1.0" encoding="UTF-8"?>
<!--Generator: Apple Native CoreSVG 129-->
<!DOCTYPE svg
PUBLIC "-//W3C//DTD SVG 1.1//EN"
       "http://www.w3.org/Graphics/SVG/1.1/DTD/svg11.dtd">
<svg version="1.1" xmlns="http://www.w3.org/2000/svg" xmlns:xlink="http://www.w3.org/1999/xlink" width="3300" height="2200">
 <!--glyph: "uni100016.medium", point size: 100.000000, font version: "Version 16.0d9e1", template writer version: "8"-->
 <g id="Notes">
  <rect height="2200" id="artboard" style="fill:white;opacity:1" width="3300" x="0" y="0"/>
  <line id="" style="fill:none;stroke:black;opacity:1;stroke-width:0.5;" x1="263" x2="3036" y1="292" y2="292"/>
  <text style="stroke:none;fill:black;font-family:-apple-system,&quot;SF Pro Display&quot;,&quot;SF Pro Text&quot;,Helvetica,sans-serif;font-weight:bold;" transform="matrix(1 0 0 1 263 322)">Weight/Scale Variations</text>
  <text style="stroke:none;fill:black;font-family:-apple-system,&quot;SF Pro Display&quot;,&quot;SF Pro Text&quot;,Helvetica,sans-serif;text-anchor:middle;" transform="matrix(1 0 0 1 559.711 322)">Ultralight</text>
  <text style="stroke:none;fill:black;font-family:-apple-system,&quot;SF Pro Display&quot;,&quot;SF Pro Text&quot;,Helvetica,sans-serif;text-anchor:middle;" transform="matrix(1 0 0 1 856.422 322)">Thin</text>
  <text style="stroke:none;fill:black;font-family:-apple-system,&quot;SF Pro Display&quot;,&quot;SF Pro Text&quot;,Helvetica,sans-serif;text-anchor:middle;" transform="matrix(1 0 0 1 1153.13 322)">Light</text>
  <text style="stroke:none;fill:black;font-family:-apple-system,&quot;SF Pro Display&quot;,&quot;SF Pro Text&quot;,Helvetica,sans-serif;text-anchor:middle;" transform="matrix(1 0 0 1 1449.84 322)">Regular</text>
  <text style="stroke:none;fill:black;font-family:-apple-system,&quot;SF Pro Display&quot;,&quot;SF Pro Text&quot;,Helvetica,sans-serif;text-anchor:middle;" transform="matrix(1 0 0 1 1746.56 322)">Medium</text>
  <text style="stroke:none;fill:black;font-family:-apple-system,&quot;SF Pro Display&quot;,&quot;SF Pro Text&quot;,Helvetica,sans-serif;text-anchor:middle;" transform="matrix(1 0 0 1 2043.27 322)">Semibold</text>
  <text style="stroke:none;fill:black;font-family:-apple-system,&quot;SF Pro Display&quot;,&quot;SF Pro Text&quot;,Helvetica,sans-serif;text-anchor:middle;" transform="matrix(1 0 0 1 2339.98 322)">Bold</text>
  <text style="stroke:none;fill:black;font-family:-apple-system,&quot;SF Pro Display&quot;,&quot;SF Pro Text&quot;,Helvetica,sans-serif;text-anchor:middle;" transform="matrix(1 0 0 1 2636.69 322)">Heavy</text>
  <text style="stroke:none;fill:black;font-family:-apple-system,&quot;SF Pro Display&quot;,&quot;SF Pro Text&quot;,Helvetica,sans-serif;text-anchor:middle;" transform="matrix(1 0 0 1 2933.4 322)">Black</text>
  <line id="" style="fill:none;stroke:black;opacity:1;stroke-width:0.5;" x1="263" x2="3036" y1="1903" y2="1903"/>
  <g id="" transform="matrix(1 0 0 1 263 1933)">
   <path d="M 9.24805 0.830078 C 13.5547 0.830078 17.1387 -2.74414 17.1387 -7.05078 C 17.1387 -11.3574 13.5449 -14.9316 9.23828 -14.9316 C 4.94141 -14.9316 1.36719 -11.3574 1.36719 -7.05078 C 1.36719 -2.74414 4.95117 0.830078 9.24805 0.830078 Z M 9.24805 -0.654297 C 5.70312 -0.654297 2.87109 -3.49609 2.87109 -7.05078 C 2.87109 -10.6055 5.69336 -13.4473 9.23828 -13.4473 C 12.793 -13.4473 15.6348 -10.6055 15.6445 -7.05078 C 15.6543 -3.49609 12.8027 -0.654297 9.24805 -0.654297 Z M 9.22852 -3.62305 C 9.69727 -3.62305 9.9707 -3.93555 9.9707 -4.45312 L 9.9707 -6.31836 L 12.002 -6.31836 C 12.5 -6.31836 12.832 -6.57227 12.832 -7.04102 C 12.832 -7.51953 12.5195 -7.7832 12.002 -7.7832 L 9.9707 -7.7832 L 9.9707 -9.81445 C 9.9707 -10.332 9.69727 -10.6543 9.22852 -10.6543 C 8.75977 -10.6543 8.50586 -10.3125 8.50586 -9.81445 L 8.50586 -7.7832 L 6.49414 -7.7832 C 5.97656 -7.7832 5.64453 -7.51953 5.64453 -7.04102 C 5.64453 -6.57227 5.99609 -6.31836 6.49414 -6.31836 L 8.50586 -6.31836 L 8.50586 -4.45312 C 8.50586 -3.95508 8.75977 -3.62305 9.22852 -3.62305 Z"/>
  </g>
  <g id="" transform="matrix(1 0 0 1 281.506 1933)">
   <path d="M 11.709 2.91016 C 17.1582 2.91016 21.6699 -1.61133 21.6699 -7.05078 C 21.6699 -12.5 17.1484 -17.0117 11.6992 -17.0117 C 6.25977 -17.0117 1.74805 -12.5 1.74805 -7.05078 C 1.74805 -1.61133 6.26953 2.91016 11.709 2.91016 Z M 11.709 1.25 C 7.09961 1.25 3.41797 -2.44141 3.41797 -7.05078 C 3.41797 -11.6602 7.08984 -15.3516 11.6992 -15.3516 C 16.3086 -15.3516 20 -11.6602 20.0098 -7.05078 C 20.0195 -2.44141 16.3184 1.25 11.709 1.25 Z M 11.6797 -2.66602 C 12.207 -2.66602 12.5098 -3.01758 12.5098 -3.59375 L 12.5098 -6.23047 L 15.3223 -6.23047 C 15.8691 -6.23047 16.25 -6.51367 16.25 -7.03125 C 16.25 -7.55859 15.8887 -7.86133 15.3223 -7.86133 L 12.5098 -7.86133 L 12.5098 -10.6836 C 12.5098 -11.25 12.207 -11.6113 11.6797 -11.6113 C 11.1621 -11.6113 10.8789 -11.2305 10.8789 -10.6836 L 10.8789 -7.86133 L 8.07617 -7.86133 C 7.50977 -7.86133 7.13867 -7.55859 7.13867 -7.03125 C 7.13867 -6.51367 7.5293 -6.23047 8.07617 -6.23047 L 10.8789 -6.23047 L 10.8789 -3.59375 C 10.8789 -3.03711 11.1621 -2.66602 11.6797 -2.66602 Z"/>
  </g>
  <g id="" transform="matrix(1 0 0 1 304.924 1933)">
   <path d="M 14.9707 5.66406 C 21.9336 5.66406 27.6953 -0.0976562 27.6953 -7.05078 C 27.6953 -14.0137 21.9238 -19.7754 14.9609 -19.7754 C 8.00781 -19.7754 2.25586 -14.0137 2.25586 -7.05078 C 2.25586 -0.0976562 8.01758 5.66406 14.9707 5.66406 Z M 14.9707 3.84766 C 8.93555 3.84766 4.08203 -1.01562 4.08203 -7.05078 C 4.08203 -13.0957 8.92578 -17.9492 14.9609 -17.9492 C 21.0059 -17.9492 25.8594 -13.0957 25.8691 -7.05078 C 25.8789 -1.01562 21.0156 3.84766 14.9707 3.84766 Z M 14.9414 -1.38672 C 15.5176 -1.38672 15.8594 -1.77734 15.8594 -2.38281 L 15.8594 -6.13281 L 19.7754 -6.13281 C 20.3711 -6.13281 20.7812 -6.46484 20.7812 -7.02148 C 20.7812 -7.59766 20.3906 -7.93945 19.7754 -7.93945 L 15.8594 -7.93945 L 15.8594 -11.8652 C 15.8594 -12.4805 15.5176 -12.8711 14.9414 -12.8711 C 14.375 -12.8711 14.0527 -12.4609 14.0527 -11.8652 L 14.0527 -7.93945 L 10.1465 -7.93945 C 9.53125 -7.93945 9.13086 -7.59766 9.13086 -7.02148 C 9.13086 -6.46484 9.55078 -6.13281 10.1465 -6.13281 L 14.0527 -6.13281 L 14.0527 -2.38281 C 14.0527 -1.79688 14.375 -1.38672 14.9414 -1.38672 Z"/>
  </g>
  <text style="stroke:none;fill:black;font-family:-apple-system,&quot;SF Pro Display&quot;,&quot;SF Pro Text&quot;,Helvetica,sans-serif;font-weight:bold;" transform="matrix(1 0 0 1 263 1953)">Design Variations</text>
  <text style="stroke:none;fill:black;font-family:-apple-system,&quot;SF Pro Display&quot;,&quot;SF Pro Text&quot;,Helvetica,sans-serif;" transform="matrix(1 0 0 1 263 1971)">Symbols are supported in up to nine weights and three scales.</text>
  <text style="stroke:none;fill:black;font-family:-apple-system,&quot;SF Pro Display&quot;,&quot;SF Pro Text&quot;,Helvetica,sans-serif;" transform="matrix(1 0 0 1 263 1989)">For optimal layout with text and other symbols, vertically align</text>
  <text style="stroke:none;fill:black;font-family:-apple-system,&quot;SF Pro Display&quot;,&quot;SF Pro Text&quot;,Helvetica,sans-serif;" transform="matrix(1 0 0 1 263 2007)">symbols with the adjacent text.</text>
  <line id="" style="fill:none;stroke:#00AEEF;stroke-width:0.5;opacity:1.0;" x1="776" x2="776" y1="1919" y2="1933"/>
  <g id="" transform="matrix(1 0 0 1 776 1933)">
   <path d="M 3.31055 0.126953 C 3.82812 0.126953 4.08203 -0.0683594 4.26758 -0.605469 L 5.52734 -4.0625 L 11.2891 -4.0625 L 12.5488 -0.605469 C 12.7344 -0.0683594 12.9883 0.126953 13.4961 0.126953 C 14.0137 0.126953 14.3457 -0.185547 14.3457 -0.673828 C 14.3457 -0.839844 14.3164 -0.986328 14.2383 -1.20117 L 9.6582 -13.3887 C 9.43359 -13.9941 9.0332 -14.2871 8.4082 -14.2871 C 7.80273 -14.2871 7.39258 -13.9941 7.17773 -13.3984 L 2.59766 -1.19141 C 2.51953 -0.976562 2.49023 -0.830078 2.49023 -0.664062 C 2.49023 -0.175781 2.80273 0.126953 3.31055 0.126953 Z M 6.00586 -5.53711 L 8.37891 -12.1094 L 8.42773 -12.1094 L 10.8008 -5.53711 Z"/>
  </g>
  <line id="" style="fill:none;stroke:#00AEEF;stroke-width:0.5;opacity:1.0;" x1="792.836" x2="792.836" y1="1919" y2="1933"/>
  <text style="stroke:none;fill:black;font-family:-apple-system,&quot;SF Pro Display&quot;,&quot;SF Pro Text&quot;,Helvetica,sans-serif;font-weight:bold;" transform="matrix(1 0 0 1 776 1953)">Margins</text>
  <text style="stroke:none;fill:black;font-family:-apple-system,&quot;SF Pro Display&quot;,&quot;SF Pro Text&quot;,Helvetica,sans-serif;" transform="matrix(1 0 0 1 776 1971)">Leading and trailing margins on the left and right side of each symbol</text>
  <text style="stroke:none;fill:black;font-family:-apple-system,&quot;SF Pro Display&quot;,&quot;SF Pro Text&quot;,Helvetica,sans-serif;" transform="matrix(1 0 0 1 776 1989)">can be adjusted by modifying the x-location of the margin guidelines.</text>
  <text style="stroke:none;fill:black;font-family:-apple-system,&quot;SF Pro Display&quot;,&quot;SF Pro Text&quot;,Helvetica,sans-serif;" transform="matrix(1 0 0 1 776 2007)">Modifications are automatically applied proportionally to all</text>
  <text style="stroke:none;fill:black;font-family:-apple-system,&quot;SF Pro Display&quot;,&quot;SF Pro Text&quot;,Helvetica,sans-serif;" transform="matrix(1 0 0 1 776 2025)">scales and weights.</text>
  <g id="" transform="matrix(1 0 0 1 1289 1933)">
   <path d="M 2.8418 1.86523 L 4.54102 3.57422 C 5.40039 4.44336 6.38672 4.38477 7.31445 3.35938 L 17.4902 -7.85156 C 17.7539 -7.76367 18.0273 -7.7832 18.3398 -7.8418 L 19.4043 -8.03711 L 20.0684 -7.36328 L 20.0293 -6.80664 C 19.9902 -6.30859 20.1172 -5.92773 20.6055 -5.44922 L 21.3672 -4.70703 C 21.8457 -4.22852 22.4609 -4.19922 22.9297 -4.66797 L 25.8398 -7.58789 C 26.3086 -8.05664 26.2891 -8.65234 25.8105 -9.13086 L 25.0391 -9.89258 C 24.5605 -10.3711 24.1895 -10.5273 23.7109 -10.4883 L 23.1348 -10.4395 L 22.4902 -11.0742 L 22.7344 -12.1973 C 22.8613 -12.7637 22.7051 -13.2031 22.1191 -13.7891 L 19.9219 -15.9766 C 16.582 -19.2969 12.1484 -19.2188 9.25781 -16.3281 C 8.83789 -15.918 8.80859 -15.3418 9.04297 -14.9512 C 9.27734 -14.5898 9.73633 -14.3555 10.3809 -14.5215 C 11.8457 -14.8633 13.3691 -14.9219 14.7949 -13.9844 L 14.209 -12.5293 C 14.0137 -12.0508 13.9844 -11.6504 14.1113 -11.2891 L 3.04688 -0.898438 C 2.06055 0.0195312 1.98242 0.996094 2.8418 1.86523 Z M 10.752 -15.957 C 13.1836 -17.7344 16.4746 -17.4316 18.7012 -15.2051 L 21.1328 -12.793 C 21.3672 -12.5586 21.4062 -12.373 21.3379 -12.0312 L 21.0156 -10.5469 L 22.5195 -9.0625 L 23.5059 -9.12109 C 23.7598 -9.13086 23.8379 -9.11133 24.0332 -8.91602 L 24.6094 -8.33984 L 22.168 -5.89844 L 21.5918 -6.47461 C 21.3965 -6.66992 21.3672 -6.74805 21.377 -7.01172 L 21.4453 -7.98828 L 19.9512 -9.47266 L 18.4277 -9.21875 C 18.1055 -9.15039 17.959 -9.17969 17.7148 -9.41406 L 15.7129 -11.416 C 15.459 -11.6504 15.4297 -11.8164 15.5859 -12.1875 L 16.4648 -14.2773 C 14.9023 -15.7324 12.8711 -16.3574 10.8398 -15.7617 C 10.6836 -15.7227 10.625 -15.8496 10.752 -15.957 Z M 5.27344 2.30469 L 4.10156 1.14258 C 3.63281 0.683594 3.74023 0.341797 4.14062 -0.0195312 L 14.9512 -10.1953 L 16.416 -8.71094 L 6.42578 2.27539 C 6.07422 2.67578 5.74219 2.77344 5.27344 2.30469 Z"/>
  </g>
  <text style="stroke:none;fill:black;font-family:-apple-system,&quot;SF Pro Display&quot;,&quot;SF Pro Text&quot;,Helvetica,sans-serif;font-weight:bold;" transform="matrix(1 0 0 1 1289 1953)">Exporting</text>
  <text style="stroke:none;fill:black;font-family:-apple-system,&quot;SF Pro Display&quot;,&quot;SF Pro Text&quot;,Helvetica,sans-serif;" transform="matrix(1 0 0 1 1289 1971)">Symbols should be outlined when exporting to ensure the</text>
  <text style="stroke:none;fill:black;font-family:-apple-system,&quot;SF Pro Display&quot;,&quot;SF Pro Text&quot;,Helvetica,sans-serif;" transform="matrix(1 0 0 1 1289 1989)">design is preserved when submitting to Xcode.</text>
  <text id="template-version" style="stroke:none;fill:black;font-family:-apple-system,&quot;SF Pro Display&quot;,&quot;SF Pro Text&quot;,Helvetica,sans-serif;text-anchor:end;" transform="matrix(1 0 0 1 3036 1933)">Template v.2.0</text>
  <text style="stroke:none;fill:black;font-family:-apple-system,&quot;SF Pro Display&quot;,&quot;SF Pro Text&quot;,Helvetica,sans-serif;text-anchor:end;" transform="matrix(1 0 0 1 3036 1951)">Requires Xcode 12 or greater</text>
  <text style="stroke:none;fill:black;font-family:-apple-system,&quot;SF Pro Display&quot;,&quot;SF Pro Text&quot;,Helvetica,sans-serif;text-anchor:end;" transform="matrix(1 0 0 1 3036 1969)">Generated from j.circle</text>
  <text style="stroke:none;fill:black;font-family:-apple-system,&quot;SF Pro Display&quot;,&quot;SF Pro Text&quot;,Helvetica,sans-serif;text-anchor:end;" transform="matrix(1 0 0 1 3036 1987)">Typeset at 100 points</text>
  <text style="stroke:none;fill:black;font-family:-apple-system,&quot;SF Pro Display&quot;,&quot;SF Pro Text&quot;,Helvetica,sans-serif;" transform="matrix(1 0 0 1 263 726)">Small</text>
  <text style="stroke:none;fill:black;font-family:-apple-system,&quot;SF Pro Display&quot;,&quot;SF Pro Text&quot;,Helvetica,sans-serif;" transform="matrix(1 0 0 1 263 1156)">Medium</text>
  <text style="stroke:none;fill:black;font-family:-apple-system,&quot;SF Pro Display&quot;,&quot;SF Pro Text&quot;,Helvetica,sans-serif;" transform="matrix(1 0 0 1 263 1586)">Large</text>
 </g>
 <g id="Guides">
  <g id="H-reference" style="fill:#27AAE1;stroke:none;" transform="matrix(1 0 0 1 339 696)">
   <path d="M 0.976562 0 L 3.66211 0 L 12.9883 -24.4629 L 45.7031 -24.4629 L 55.0781 0 L 57.7148 0 L 30.6152 -70.459 L 28.125 -70.459 Z M 29.2969 -67.1387 L 29.3945 -67.1387 L 44.873 -26.709 L 13.8672 -26.709 Z"/>
  </g>
  <line id="Baseline-S" style="fill:none;stroke:#27AAE1;opacity:1;stroke-width:0.5;" x1="263" x2="3036" y1="696" y2="696"/>
  <line id="Capline-S" style="fill:none;stroke:#27AAE1;opacity:1;stroke-width:0.5;" x1="263" x2="3036" y1="625.541" y2="625.541"/>
  <g id="H-reference" style="fill:#27AAE1;stroke:none;" transform="matrix(1 0 0 1 339 1126)">
   <path d="M 0.976562 0 L 3.66211 0 L 12.9883 -24.4629 L 45.7031 -24.4629 L 55.0781 0 L 57.7148 0 L 30.6152 -70.459 L 28.125 -70.459 Z M 29.2969 -67.1387 L 29.3945 -67.1387 L 44.873 -26.709 L 13.8672 -26.709 Z"/>
  </g>
  <line id="Baseline-M" style="fill:none;stroke:#27AAE1;opacity:1;stroke-width:0.5;" x1="263" x2="3036" y1="1126" y2="1126"/>
  <line id="Capline-M" style="fill:none;stroke:#27AAE1;opacity:1;stroke-width:0.5;" x1="263" x2="3036" y1="1055.54" y2="1055.54"/>
  <g id="H-reference" style="fill:#27AAE1;stroke:none;" transform="matrix(1 0 0 1 339 1556)">
   <path d="M 0.976562 0 L 3.66211 0 L 12.9883 -24.4629 L 45.7031 -24.4629 L 55.0781 0 L 57.7148 0 L 30.6152 -70.459 L 28.125 -70.459 Z M 29.2969 -67.1387 L 29.3945 -67.1387 L 44.873 -26.709 L 13.8672 -26.709 Z"/>
  </g>
  <line id="Baseline-L" style="fill:none;stroke:#27AAE1;opacity:1;stroke-width:0.5;" x1="263" x2="3036" y1="1556" y2="1556"/>
  <line id="Capline-L" style="fill:none;stroke:#27AAE1;opacity:1;stroke-width:0.5;" x1="263" x2="3036" y1="1485.54" y2="1485.54"/>
  <line id="left-margin" style="fill:none;stroke:#00AEEF;stroke-width:0.5;opacity:1.0;" x1="1391.3" x2="1391.3" y1="1030.79" y2="1150.12"/>
  <line id="right-margin" style="fill:none;stroke:#00AEEF;stroke-width:0.5;opacity:1.0;" x1="1508.39" x2="1508.39" y1="1030.79" y2="1150.12"/>
 </g>
 <g id="Symbols">
  <g id="Black-L" transform="matrix(1 0 0 1 2854.05 1556)">
   <path d="M 79.3457 32.8613 C 116.748 32.8613 147.412 2.19727 147.412 -35.2051 C 147.412 -72.6074 116.748 -103.271 79.2969 -103.271 C 41.8945 -103.271 11.2793 -72.6074 11.2793 -35.2051 C 11.2793 2.19727 41.9434 32.8613 79.3457 32.8613 Z M 79.3457 12.4023 C 52.9785 12.4023 31.7383 -8.83789 31.7383 -35.2051 C 31.7383 -61.5723 52.9297 -82.8125 79.2969 -82.8125 C 105.664 -82.8125 126.953 -61.5723 126.953 -35.2051 C 127.002 -8.83789 105.713 12.4023 79.3457 12.4023 Z M 76.8066 -6.20117 C 91.5039 -6.20117 100.293 -14.209 100.293 -28.3203 L 100.293 -53.4668 C 100.293 -60.2051 96.6797 -64.3066 90.5273 -64.3066 C 84.3262 -64.3066 80.7617 -60.2539 80.7617 -53.4668 L 80.7617 -28.9062 C 80.7617 -24.3164 79.3457 -22.4121 76.2695 -22.4121 C 73.9258 -22.4121 72.4121 -23.5352 71.582 -25.7812 C 70.3613 -29.8828 67.5781 -31.9824 62.6953 -31.9824 C 57.4707 -31.8848 53.9551 -28.418 53.9551 -23.291 C 53.9551 -21.8262 54.1504 -20.459 54.5898 -19.1895 C 56.9824 -11.2305 65.5762 -6.20117 76.8066 -6.20117 Z"/>
  </g>
  <g id="Heavy-L" transform="matrix(1 0 0 1 2558.39 1556)">
   <path d="M 78.2715 31.7871 C 115.088 31.7871 145.312 1.5625 145.312 -35.2051 C 145.312 -72.0215 115.039 -102.246 78.2715 -102.246 C 41.4551 -102.246 11.2793 -72.0215 11.2793 -35.2051 C 11.2793 1.5625 41.5039 31.7871 78.2715 31.7871 Z M 78.2715 14.0137 C 51.0254 14.0137 29.0527 -7.95898 29.0527 -35.2051 C 29.0527 -62.5 50.9766 -84.4727 78.2715 -84.4727 C 105.518 -84.4727 127.49 -62.5 127.539 -35.2051 C 127.539 -7.95898 105.566 14.0137 78.2715 14.0137 Z M 75.6836 -6.15234 C 89.6484 -6.15234 97.8516 -13.8184 97.8516 -27.2949 L 97.8516 -55.0293 C 97.8516 -60.8887 94.7754 -64.4043 89.4043 -64.4043 C 83.9844 -64.4043 80.957 -60.8398 80.957 -55.0293 L 80.957 -27.7832 C 80.957 -22.7051 79.0039 -20.2637 75.3906 -20.2637 C 72.3633 -20.2637 70.3613 -21.8262 69.4336 -24.5605 C 68.2617 -28.2227 65.8203 -29.9805 61.6699 -29.9805 C 57.1289 -29.9316 54.0527 -26.9043 54.0527 -22.4121 C 54.0527 -21.0938 54.248 -19.8242 54.6387 -18.6523 C 56.9336 -11.0352 65.0879 -6.15234 75.6836 -6.15234 Z"/>
  </g>
  <g id="Bold-L" transform="matrix(1 0 0 1 2262.88 1556)">
   <path d="M 77.0996 30.5664 C 113.232 30.5664 142.92 0.878906 142.92 -35.2539 C 142.92 -71.3379 113.184 -101.074 77.0508 -101.074 C 40.9668 -101.074 11.2793 -71.3379 11.2793 -35.2539 C 11.2793 0.878906 41.0156 30.5664 77.0996 30.5664 Z M 77.0996 15.8203 C 48.8281 15.8203 26.0742 -6.98242 26.0742 -35.2539 C 26.0742 -63.5254 48.7793 -86.2793 77.0508 -86.2793 C 105.371 -86.2793 128.125 -63.5254 128.174 -35.2539 C 128.174 -6.98242 105.371 15.8203 77.0996 15.8203 Z M 74.4141 -6.10352 C 87.5977 -6.10352 95.166 -13.3789 95.166 -26.123 L 95.166 -56.7383 C 95.166 -61.6211 92.627 -64.5508 88.1348 -64.5508 C 83.6426 -64.5508 81.1523 -61.5723 81.1523 -56.7383 L 81.1523 -26.5137 C 81.1523 -20.8984 78.6621 -17.9199 74.3652 -17.9199 C 70.6055 -17.9199 68.0664 -19.873 66.9434 -23.1934 C 65.8691 -26.3184 63.916 -27.7832 60.498 -27.7832 C 56.7383 -27.7832 54.1504 -25.1953 54.1504 -21.4355 C 54.1504 -20.2637 54.3457 -19.1406 54.6875 -18.0664 C 56.8848 -10.8398 64.502 -6.10352 74.4141 -6.10352 Z"/>
  </g>
  <g id="Semibold-L" transform="matrix(1 0 0 1 1966.97 1556)">
   <path d="M 76.2695 29.7363 C 111.914 29.7363 141.309 0.390625 141.309 -35.2539 C 141.309 -70.8984 111.865 -100.244 76.2695 -100.244 C 40.625 -100.244 11.2793 -70.8984 11.2793 -35.2539 C 11.2793 0.390625 40.6738 29.7363 76.2695 29.7363 Z M 76.2695 17.041 C 47.3145 17.041 24.0234 -6.25 24.0234 -35.2539 C 24.0234 -64.209 47.2656 -87.5488 76.2695 -87.5488 C 105.225 -87.5488 128.564 -64.209 128.613 -35.2539 C 128.662 -6.25 105.273 17.041 76.2695 17.041 Z M 73.4863 -6.05469 C 86.1816 -6.05469 93.3594 -13.0859 93.3594 -25.3418 L 93.3594 -57.9102 C 93.3594 -62.1094 91.1621 -64.6484 87.2559 -64.6484 C 83.3984 -64.6484 81.25 -62.0605 81.25 -57.9102 L 81.25 -25.5859 C 81.25 -19.6289 78.418 -16.2598 73.6328 -16.2598 C 69.3848 -16.2598 66.4551 -18.5059 65.2832 -22.2656 C 64.2578 -25 62.5488 -26.2695 59.7168 -26.2695 C 56.4453 -26.2695 54.248 -24.0234 54.248 -20.752 C 54.248 -19.6777 54.3945 -18.6523 54.6875 -17.627 C 56.8359 -10.6445 64.1113 -6.05469 73.4863 -6.05469 Z"/>
  </g>
  <g id="Medium-L" transform="matrix(1 0 0 1 1670.87 1556)">
   <path d="M 75.6836 29.1504 C 110.938 29.1504 140.088 0 140.088 -35.2539 C 140.088 -70.5078 110.889 -99.6582 75.6348 -99.6582 C 40.3809 -99.6582 11.2793 -70.5078 11.2793 -35.2539 C 11.2793 0 40.3809 29.1504 75.6836 29.1504 Z M 75.6836 18.0176 C 46.1426 18.0176 22.4609 -5.76172 22.4609 -35.2539 C 22.4609 -64.7461 46.1426 -88.5254 75.6348 -88.5254 C 105.127 -88.5254 128.906 -64.7461 128.906 -35.2539 C 128.955 -5.76172 105.176 18.0176 75.6836 18.0176 Z M 72.8516 -6.00586 C 85.1074 -6.00586 91.9434 -12.8418 91.9434 -24.7559 L 91.9434 -58.8379 C 91.9434 -62.5 90.0391 -64.6973 86.6211 -64.6973 C 83.252 -64.6973 81.3477 -62.4023 81.3477 -58.8379 L 81.3477 -24.9512 C 81.3477 -18.7012 78.2227 -15.0391 73.0957 -15.0391 C 68.457 -15.0391 65.2344 -17.4805 64.0137 -21.582 C 63.0371 -24.0234 61.5234 -25.1465 59.1309 -25.1465 C 56.25 -25.0977 54.2969 -23.1445 54.2969 -20.2637 C 54.2969 -19.2383 54.4434 -18.3105 54.7363 -17.334 C 56.7871 -10.5469 63.8184 -6.00586 72.8516 -6.00586 Z"/>
  </g>
  <g id="Regular-L" transform="matrix(1 0 0 1 1374.97 1556)">
   <path d="M 74.8535 28.3203 C 109.668 28.3203 138.477 -0.488281 138.477 -35.2539 C 138.477 -70.0684 109.619 -98.877 74.8047 -98.877 C 40.0391 -98.877 11.2793 -70.0684 11.2793 -35.2539 C 11.2793 -0.488281 40.0879 28.3203 74.8535 28.3203 Z M 74.8535 19.2383 C 44.6777 19.2383 20.4102 -5.07812 20.4102 -35.2539 C 20.4102 -65.4785 44.6289 -89.7461 74.8047 -89.7461 C 105.029 -89.7461 129.297 -65.4785 129.346 -35.2539 C 129.395 -5.07812 105.078 19.2383 74.8535 19.2383 Z M 71.9727 -6.00586 C 83.6914 -6.00586 90.0879 -12.5488 90.0879 -23.9746 L 90.0879 -60.0098 C 90.0879 -62.9883 88.5742 -64.7949 85.7422 -64.7949 C 83.0078 -64.7949 81.4941 -62.8906 81.4941 -60.0098 L 81.4941 -24.0723 C 81.4941 -17.4316 78.0273 -13.4277 72.4121 -13.4277 C 67.2852 -13.4277 63.6719 -16.1621 62.3535 -20.6543 C 61.4258 -22.7539 60.2051 -23.6328 58.3496 -23.6328 C 55.957 -23.6328 54.3945 -21.9727 54.3945 -19.5801 C 54.3945 -18.7012 54.4922 -17.8223 54.7852 -16.9434 C 56.7383 -10.4004 63.4766 -6.00586 71.9727 -6.00586 Z"/>
  </g>
  <g id="Light-L" transform="matrix(1 0 0 1 1079.18 1556)">
   <path d="M 73.9258 27.3926 C 108.301 27.3926 136.621 -0.927734 136.621 -35.2539 C 136.621 -69.6289 108.252 -97.9492 73.9258 -97.9492 C 39.5508 -97.9492 11.2793 -69.6289 11.2793 -35.2539 C 11.2793 -0.927734 39.5996 27.3926 73.9258 27.3926 Z M 73.9258 20.5078 C 43.1152 20.5078 18.2129 -4.44336 18.2129 -35.2539 C 18.2129 -66.1133 43.0664 -91.0156 73.9258 -91.0156 C 104.736 -91.0156 129.688 -66.1133 129.736 -35.2539 C 129.736 -4.44336 104.785 20.5078 73.9258 20.5078 Z M 71.3379 -6.34766 C 82.1289 -6.34766 88.2324 -12.793 88.2324 -23.4863 L 88.2324 -60.5469 C 88.2324 -62.793 87.0605 -64.209 84.9121 -64.209 C 82.8125 -64.209 81.5918 -62.7441 81.5918 -60.5469 L 81.5918 -23.5352 C 81.5918 -16.5039 77.7832 -12.1582 71.6309 -12.1582 C 65.9668 -12.1582 61.7676 -15.4297 60.6934 -20.459 C 60.0586 -22.1191 59.1309 -22.8516 57.6172 -22.8516 C 55.7129 -22.8516 54.541 -21.582 54.541 -19.6777 C 54.541 -18.9453 54.6387 -18.2129 54.834 -17.4316 C 56.4941 -10.9375 63.0371 -6.34766 71.3379 -6.34766 Z"/>
  </g>
  <g id="Thin-L" transform="matrix(1 0 0 1 783.693 1556)">
   <path d="M 72.7051 26.1719 C 106.494 26.1719 134.18 -1.51367 134.18 -35.2539 C 134.18 -69.043 106.494 -96.7285 72.7051 -96.7285 C 38.9648 -96.7285 11.2793 -69.043 11.2793 -35.2539 C 11.2793 -1.51367 38.9648 26.1719 72.7051 26.1719 Z M 72.7051 22.168 C 41.0156 22.168 15.2832 -3.56445 15.2832 -35.2539 C 15.2832 -66.9922 41.0156 -92.7246 72.7051 -92.7246 C 104.395 -92.7246 130.176 -66.9922 130.176 -35.2539 C 130.176 -3.56445 104.443 22.168 72.7051 22.168 Z M 70.5078 -6.78711 C 80.0781 -6.78711 85.791 -13.1348 85.791 -22.9004 L 85.791 -61.2793 C 85.791 -62.5977 85.0586 -63.3789 83.7891 -63.3789 C 82.5684 -63.3789 81.7383 -62.5977 81.7383 -61.2793 L 81.7383 -22.9004 C 81.7383 -15.2344 77.4414 -10.4492 70.6543 -10.4492 C 64.209 -10.4492 59.2773 -14.4531 58.5449 -20.166 C 58.3008 -21.3379 57.666 -21.875 56.6406 -21.875 C 55.4199 -21.875 54.7363 -21.0938 54.7363 -19.7754 C 54.7363 -19.3359 54.7852 -18.75 54.9316 -18.0664 C 56.1523 -11.6211 62.4512 -6.78711 70.5078 -6.78711 Z"/>
  </g>
  <g id="Ultralight-L" transform="matrix(1 0 0 1 487.616 1556)">
   <path d="M 72.1191 25.5371 C 105.566 25.5371 132.91 -1.80664 132.91 -35.2539 C 132.91 -68.75 105.566 -96.0938 72.1191 -96.0938 C 38.623 -96.0938 11.2793 -68.75 11.2793 -35.2539 C 11.2793 -1.80664 38.623 25.5371 72.1191 25.5371 Z M 72.1191 23.0469 C 39.9414 23.0469 13.7695 -3.125 13.7695 -35.2539 C 13.7695 -67.4316 39.9414 -93.6035 72.1191 -93.6035 C 104.248 -93.6035 130.42 -67.4316 130.42 -35.2539 C 130.42 -3.125 104.248 23.0469 72.1191 23.0469 Z M 70.0684 -6.98242 C 79.0039 -6.98242 84.5703 -13.3301 84.5703 -22.5586 L 84.5703 -61.6699 C 84.5703 -62.5 84.0332 -62.9883 83.2031 -62.9883 C 82.4707 -62.9883 81.8359 -62.5 81.8359 -61.6699 L 81.8359 -22.5586 C 81.8359 -14.5996 77.2949 -9.61914 70.1172 -9.61914 C 63.3301 -9.61914 58.0078 -13.9648 57.4707 -20.0195 C 57.373 -20.8984 56.8848 -21.3379 56.1523 -21.3379 C 55.2734 -21.3379 54.834 -20.8496 54.834 -19.873 C 54.834 -19.5312 54.8828 -18.9941 54.9316 -18.3594 C 55.957 -11.9629 62.207 -6.98242 70.0684 -6.98242 Z"/>
  </g>
  <g id="Black-M" transform="matrix(1 0 0 1 2870.97 1126)">
   <path d="M 62.4023 18.457 C 91.9922 18.457 116.113 -5.61523 116.113 -35.2051 C 116.113 -64.7949 91.9922 -88.8672 62.4023 -88.8672 C 32.8125 -88.8672 8.74023 -64.7949 8.74023 -35.2051 C 8.74023 -5.61523 32.8125 18.457 62.4023 18.457 Z M 62.4023 0.195312 C 42.8711 0.195312 27.002 -15.625 27.002 -35.2051 C 27.002 -54.7363 42.8711 -70.6055 62.4023 -70.6055 C 81.9824 -70.6055 97.8027 -54.7363 97.8027 -35.2051 C 97.8027 -15.625 81.9824 0.195312 62.4023 0.195312 Z M 60.7422 -12.9883 C 72.5586 -12.9883 79.9805 -19.6289 79.9805 -31.0059 L 79.9805 -47.5586 C 79.9805 -53.6133 76.6602 -57.2754 71.1914 -57.2754 C 65.6738 -57.2754 62.4512 -53.7109 62.4512 -47.5586 L 62.4512 -31.6406 C 62.4512 -28.4668 61.7676 -27.4414 59.9609 -27.4414 C 58.6914 -27.4414 57.9102 -28.125 57.5684 -29.3945 C 56.6406 -33.0566 54.1016 -34.9609 49.5605 -34.9609 C 44.9219 -34.8633 41.748 -31.7871 41.748 -27.1973 C 41.748 -26.0254 41.9434 -24.8047 42.2363 -23.7305 C 44.1406 -17.1875 51.2695 -12.9883 60.7422 -12.9883 Z"/>
  </g>
  <g id="Heavy-M" transform="matrix(1 0 0 1 2575.19 1126)">
   <path d="M 61.5234 17.5293 C 90.5273 17.5293 114.258 -6.20117 114.258 -35.2051 C 114.258 -64.2578 90.5273 -87.9883 61.4746 -87.9883 C 32.4707 -87.9883 8.74023 -64.2578 8.74023 -35.2051 C 8.74023 -6.20117 32.4707 17.5293 61.5234 17.5293 Z M 61.5234 1.61133 C 41.1133 1.61133 24.6582 -14.8438 24.6582 -35.2051 C 24.6582 -55.6152 41.1133 -72.0703 61.4746 -72.0703 C 81.8848 -72.0703 98.3398 -55.6152 98.3398 -35.2051 C 98.3398 -14.8438 81.8848 1.61133 61.5234 1.61133 Z M 59.668 -12.8418 C 70.9473 -12.8418 77.832 -19.0918 77.832 -29.9805 L 77.832 -49.1211 C 77.832 -54.3945 75 -57.5684 70.2148 -57.5684 C 65.3809 -57.5684 62.5977 -54.3945 62.5977 -49.1211 L 62.5977 -30.5176 C 62.5977 -26.9531 61.5234 -25.4883 59.1309 -25.4883 C 57.3242 -25.4883 56.1523 -26.416 55.6152 -28.125 C 54.6875 -31.3477 52.4902 -33.0078 48.6328 -33.0078 C 44.5801 -32.959 41.8457 -30.2246 41.8457 -26.2207 C 41.8457 -25.0977 41.9922 -24.0234 42.2852 -23.0469 C 44.1406 -16.7969 50.8301 -12.8418 59.668 -12.8418 Z"/>
  </g>
  <g id="Bold-M" transform="matrix(1 0 0 1 2279.5 1126)">
   <path d="M 60.498 16.5039 C 88.8672 16.5039 112.207 -6.83594 112.207 -35.2051 C 112.207 -63.623 88.8672 -86.9629 60.4492 -86.9629 C 32.0312 -86.9629 8.74023 -63.623 8.74023 -35.2051 C 8.74023 -6.83594 32.0801 16.5039 60.498 16.5039 Z M 60.498 3.22266 C 39.1602 3.22266 22.0703 -13.916 22.0703 -35.2051 C 22.0703 -56.543 39.1602 -73.6816 60.4492 -73.6816 C 81.7383 -73.6816 98.9258 -56.543 98.9258 -35.2051 C 98.9746 -13.916 81.7871 3.22266 60.498 3.22266 Z M 58.4473 -12.6953 C 69.1406 -12.6953 75.4395 -18.5547 75.4395 -28.8574 L 75.4395 -50.8301 C 75.4395 -55.2246 73.0957 -57.9102 69.0918 -57.9102 C 65.0391 -57.9102 62.7441 -55.2246 62.7441 -50.8301 L 62.7441 -29.248 C 62.7441 -25.2441 61.1816 -23.2422 58.252 -23.2422 C 55.8105 -23.2422 54.1504 -24.5117 53.418 -26.7578 C 52.4902 -29.4922 50.7324 -30.8105 47.6074 -30.8105 C 44.1895 -30.7617 41.8945 -28.5156 41.8945 -25.1465 C 41.8945 -24.1211 42.041 -23.1445 42.334 -22.2656 C 44.1406 -16.4551 50.3418 -12.6953 58.4473 -12.6953 Z"/>
  </g>
  <g id="Semibold-M" transform="matrix(1 0 0 1 1983.5 1126)">
   <path d="M 59.7656 15.8203 C 87.7441 15.8203 110.791 -7.27539 110.791 -35.2539 C 110.791 -63.2324 87.6953 -86.2793 59.7656 -86.2793 C 31.7871 -86.2793 8.74023 -63.2324 8.74023 -35.2539 C 8.74023 -7.27539 31.7871 15.8203 59.7656 15.8203 Z M 59.7656 4.3457 C 37.8418 4.3457 20.2637 -13.3301 20.2637 -35.2539 C 20.2637 -57.1777 37.793 -74.8047 59.7656 -74.8047 C 81.6895 -74.8047 99.3164 -57.1777 99.3652 -35.2539 C 99.3652 -13.3301 81.6895 4.3457 59.7656 4.3457 Z M 57.6172 -12.5488 C 67.9199 -12.5488 73.7793 -18.1641 73.7793 -28.125 L 73.7793 -52.0508 C 73.7793 -55.8105 71.7773 -58.1055 68.3105 -58.1055 C 64.8438 -58.1055 62.8906 -55.7617 62.8906 -52.0508 L 62.8906 -28.3691 C 62.8906 -24.0723 60.9863 -21.7285 57.6172 -21.7285 C 54.7363 -21.7285 52.7832 -23.1934 51.9043 -25.7812 C 51.0254 -28.1738 49.4629 -29.2969 46.875 -29.2969 C 43.9453 -29.2969 41.9434 -27.2949 41.9434 -24.3652 C 41.9434 -23.4375 42.0898 -22.5586 42.3828 -21.7285 C 44.1406 -16.1621 50 -12.5488 57.6172 -12.5488 Z"/>
  </g>
  <g id="Medium-M" transform="matrix(1 0 0 1 1687.3 1126)">
   <path d="M 59.2285 15.2344 C 86.9141 15.2344 109.766 -7.61719 109.766 -35.2539 C 109.766 -62.8906 86.8652 -85.7422 59.1797 -85.7422 C 31.543 -85.7422 8.74023 -62.8906 8.74023 -35.2539 C 8.74023 -7.61719 31.5918 15.2344 59.2285 15.2344 Z M 59.2285 5.17578 C 36.8164 5.17578 18.8965 -12.8418 18.8965 -35.2539 C 18.8965 -57.666 36.8164 -75.6348 59.1797 -75.6348 C 81.5918 -75.6348 99.6094 -57.666 99.6582 -35.2539 C 99.707 -12.8418 81.6406 5.17578 59.2285 5.17578 Z M 56.9824 -12.5 C 66.9434 -12.5 72.5098 -17.8711 72.5098 -27.5391 L 72.5098 -52.9297 C 72.5098 -56.25 70.8008 -58.3008 67.7246 -58.3008 C 64.6484 -58.3008 62.9883 -56.2012 62.9883 -52.9297 L 62.9883 -27.7344 C 62.9883 -23.1445 60.791 -20.5566 57.1289 -20.5566 C 53.9551 -20.5566 51.7578 -22.168 50.7324 -25.0488 C 49.8535 -27.1973 48.5352 -28.1738 46.3379 -28.1738 C 43.75 -28.125 41.9922 -26.3672 41.9922 -23.7793 C 41.9922 -22.9492 42.1387 -22.1191 42.3828 -21.2891 C 44.1406 -15.9668 49.7559 -12.5 56.9824 -12.5 Z"/>
  </g>
  <g id="Regular-M" transform="matrix(1 0 0 1 1391.3 1126)">
   <path d="M 58.5449 14.5508 C 85.791 14.5508 108.35 -8.05664 108.35 -35.2539 C 108.35 -62.5 85.7422 -85.0586 58.4961 -85.0586 C 31.2988 -85.0586 8.74023 -62.5 8.74023 -35.2539 C 8.74023 -8.05664 31.3477 14.5508 58.5449 14.5508 Z M 58.5449 6.25 C 35.498 6.25 17.0898 -12.207 17.0898 -35.2539 C 17.0898 -58.3008 35.4492 -76.7578 58.4961 -76.7578 C 81.543 -76.7578 100 -58.3008 100.049 -35.2539 C 100.098 -12.207 81.5918 6.25 58.5449 6.25 Z M 56.1523 -12.4023 C 65.7227 -12.4023 70.8984 -17.4805 70.8984 -26.7578 L 70.8984 -54.1016 C 70.8984 -56.8359 69.4824 -58.4961 66.9434 -58.4961 C 64.4531 -58.4961 63.0859 -56.7383 63.0859 -54.1016 L 63.0859 -26.8555 C 63.0859 -21.9727 60.5957 -19.043 56.543 -19.043 C 52.8809 -19.043 50.3906 -20.8984 49.2188 -24.0723 C 48.3887 -25.8789 47.3145 -26.6602 45.6543 -26.6602 C 43.5059 -26.6602 42.041 -25.1953 42.041 -23.0469 C 42.041 -22.2656 42.1875 -21.5332 42.4316 -20.8008 C 44.1406 -15.6738 49.4141 -12.4023 56.1523 -12.4023 Z"/>
  </g>
  <g id="Light-M" transform="matrix(1 0 0 1 1095.42 1126)">
   <path d="M 57.7148 13.7207 C 84.5215 13.7207 106.689 -8.44727 106.689 -35.2539 C 106.689 -62.1094 84.5215 -84.2285 57.666 -84.2285 C 30.8594 -84.2285 8.74023 -62.1094 8.74023 -35.2539 C 8.74023 -8.44727 30.9082 13.7207 57.7148 13.7207 Z M 57.7148 7.37305 C 34.082 7.37305 15.0879 -11.6699 15.0879 -35.2539 C 15.0879 -58.8867 34.082 -77.9297 57.666 -77.9297 C 81.2988 -77.9297 100.342 -58.8867 100.391 -35.2539 C 100.391 -11.6699 81.3477 7.37305 57.7148 7.37305 Z M 55.5664 -12.6953 C 64.3555 -12.6953 69.2383 -17.7246 69.2383 -26.3672 L 69.2383 -54.5898 C 69.2383 -56.6895 68.1641 -57.959 66.1621 -57.959 C 64.2578 -57.959 63.1836 -56.5918 63.1836 -54.5898 L 63.1836 -26.416 C 63.1836 -21.1426 60.3516 -17.9199 55.8594 -17.9199 C 51.709 -17.9199 48.7305 -20.2148 47.7539 -23.877 C 47.168 -25.3418 46.2891 -25.9766 44.9707 -25.9766 C 43.3105 -25.9766 42.1875 -24.8535 42.1875 -23.1445 C 42.1875 -22.5098 42.2852 -21.875 42.4805 -21.1914 C 43.8965 -16.1621 49.0234 -12.6953 55.5664 -12.6953 Z"/>
  </g>
  <g id="Thin-M" transform="matrix(1 0 0 1 799.806 1126)">
   <path d="M 56.6406 12.5977 C 82.9102 12.5977 104.492 -8.98438 104.492 -35.2539 C 104.492 -61.5723 82.9102 -83.1543 56.5918 -83.1543 C 30.3223 -83.1543 8.74023 -61.5723 8.74023 -35.2539 C 8.74023 -8.98438 30.3223 12.5977 56.6406 12.5977 Z M 56.6406 8.88672 C 32.2266 8.88672 12.4512 -10.8887 12.4512 -35.2539 C 12.4512 -59.6191 32.2266 -79.4434 56.5918 -79.4434 C 81.0059 -79.4434 100.781 -59.6191 100.781 -35.2539 C 100.781 -10.8887 81.0059 8.88672 56.6406 8.88672 Z M 54.834 -13.0859 C 62.5 -13.0859 67.041 -18.0176 67.041 -25.7812 L 67.041 -55.2734 C 67.041 -56.4941 66.3574 -57.2266 65.1855 -57.2266 C 64.0625 -57.2266 63.3301 -56.4453 63.3301 -55.2734 L 63.3301 -25.8301 C 63.3301 -20.0195 60.1074 -16.4062 54.9805 -16.4062 C 50.1465 -16.4062 46.4844 -19.3359 45.8496 -23.584 C 45.5566 -24.6094 44.9707 -25.0977 44.0918 -25.0977 C 43.0176 -25.0977 42.3828 -24.3652 42.3828 -23.2422 C 42.3828 -22.8516 42.4316 -22.3145 42.5293 -21.7773 C 43.6035 -16.7969 48.5352 -13.0859 54.834 -13.0859 Z"/>
  </g>
  <g id="Ultralight-M" transform="matrix(1 0 0 1 503.656 1126)">
   <path d="M 56.0547 12.0605 C 82.0801 12.0605 103.369 -9.22852 103.369 -35.2539 C 103.369 -61.2793 82.0801 -82.5684 56.0547 -82.5684 C 30.0293 -82.5684 8.74023 -61.2793 8.74023 -35.2539 C 8.74023 -9.22852 30.0293 12.0605 56.0547 12.0605 Z M 56.0547 9.66797 C 31.2988 9.66797 11.1328 -10.498 11.1328 -35.2539 C 11.1328 -60.0586 31.2988 -80.1758 56.0547 -80.1758 C 80.8594 -80.1758 100.977 -60.0586 100.977 -35.2539 C 100.977 -10.498 80.8594 9.66797 56.0547 9.66797 Z M 54.4434 -13.2812 C 61.5723 -13.2812 65.918 -18.2129 65.918 -25.5371 L 65.918 -55.6152 C 65.918 -56.3965 65.4297 -56.8359 64.6484 -56.8359 C 63.916 -56.8359 63.3789 -56.3965 63.3789 -55.6152 L 63.3789 -25.5371 C 63.3789 -19.4336 59.9609 -15.625 54.4922 -15.625 C 49.3652 -15.625 45.3613 -18.8965 44.873 -23.4863 C 44.7266 -24.2676 44.3359 -24.6094 43.6523 -24.6094 C 42.8711 -24.6094 42.4316 -24.1699 42.4316 -23.291 C 42.4316 -22.998 42.5293 -22.5586 42.5781 -22.0703 C 43.4082 -17.0898 48.291 -13.2812 54.4434 -13.2812 Z"/>
  </g>
  <g id="Black-S" transform="matrix(1 0 0 1 2884.57 696)">
   <path d="M 48.8281 6.78711 C 71.9727 6.78711 90.8203 -12.0605 90.8203 -35.2051 C 90.8203 -58.3496 71.9727 -77.1973 48.8281 -77.1973 C 25.6836 -77.1973 6.83594 -58.3496 6.83594 -35.2051 C 6.83594 -12.0605 25.6836 6.78711 48.8281 6.78711 Z M 48.8281 -7.37305 C 33.4473 -7.37305 20.9961 -19.8242 20.9961 -35.2051 C 20.9961 -50.5859 33.4473 -63.0371 48.8281 -63.0371 C 64.209 -63.0371 76.6602 -50.5859 76.6602 -35.2051 C 76.6602 -19.8242 64.209 -7.37305 48.8281 -7.37305 Z M 47.5098 -17.7734 C 56.7383 -17.7734 62.5 -22.9492 62.5 -31.8359 L 62.5 -45.0195 C 62.5 -49.707 59.9609 -52.5391 55.7129 -52.5391 C 51.416 -52.5391 48.9258 -49.7559 48.9258 -45.0195 L 48.9258 -32.3242 C 48.9258 -29.834 48.3887 -29.0039 46.9238 -29.0039 C 45.8984 -29.0039 45.2637 -29.541 44.9707 -30.5664 C 44.2383 -33.3984 42.2852 -34.8633 38.7695 -34.8633 C 35.1562 -34.8145 32.7148 -32.4219 32.7148 -28.8574 C 32.7148 -27.9297 32.8613 -27.002 33.1055 -26.1719 C 34.5703 -21.0449 40.1367 -17.7734 47.5098 -17.7734 Z"/>
  </g>
  <g id="Heavy-S" transform="matrix(1 0 0 1 2588.47 696)">
   <path d="M 48.2422 6.15234 C 70.9961 6.15234 89.5996 -12.4512 89.5996 -35.2051 C 89.5996 -57.959 70.9961 -76.6113 48.1934 -76.6113 C 25.4395 -76.6113 6.83594 -57.959 6.83594 -35.2051 C 6.83594 -12.4512 25.4395 6.15234 48.2422 6.15234 Z M 48.2422 -6.39648 C 32.2754 -6.39648 19.4336 -19.2871 19.4336 -35.2051 C 19.4336 -51.1719 32.2754 -64.0137 48.1934 -64.0137 C 64.1602 -64.0137 77.002 -51.1719 77.0508 -35.2051 C 77.0508 -19.2871 64.1602 -6.39648 48.2422 -6.39648 Z M 46.7285 -17.627 C 55.6641 -17.627 61.0352 -22.5586 61.0352 -31.1035 L 61.0352 -46.1426 C 61.0352 -50.293 58.8379 -52.832 55.0293 -52.832 C 51.2207 -52.832 49.0234 -50.293 49.0234 -46.1426 L 49.0234 -31.4941 C 49.0234 -28.7598 48.1934 -27.6367 46.3867 -27.6367 C 44.9707 -27.6367 44.0918 -28.3203 43.6035 -29.6387 C 42.8711 -32.1777 41.1621 -33.4473 38.1348 -33.4473 C 34.9121 -33.3984 32.7637 -31.25 32.7637 -28.0762 C 32.7637 -27.2461 32.9102 -26.3672 33.1543 -25.5859 C 34.6191 -20.752 39.8438 -17.627 46.7285 -17.627 Z"/>
  </g>
  <g id="Bold-S" transform="matrix(1 0 0 1 2292.44 696)">
   <path d="M 47.5586 5.46875 C 69.873 5.46875 88.2324 -12.8906 88.2324 -35.2539 C 88.2324 -57.5684 69.873 -75.9277 47.5098 -75.9277 C 25.1953 -75.9277 6.83594 -57.5684 6.83594 -35.2539 C 6.83594 -12.8906 25.1953 5.46875 47.5586 5.46875 Z M 47.5586 -5.32227 C 30.957 -5.32227 17.6758 -18.6523 17.6758 -35.2539 C 17.6758 -51.8066 30.957 -65.1367 47.5098 -65.1367 C 64.1113 -65.1367 77.4414 -51.8066 77.4414 -35.2539 C 77.4414 -18.6523 64.1113 -5.32227 47.5586 -5.32227 Z M 45.8984 -17.4805 C 54.4434 -17.4805 59.4238 -22.0703 59.4238 -30.3223 L 59.4238 -47.4121 C 59.4238 -50.9766 57.5195 -53.125 54.248 -53.125 C 50.9766 -53.125 49.1699 -50.9277 49.1699 -47.4121 L 49.1699 -30.6152 C 49.1699 -27.5391 47.998 -26.0742 45.752 -26.0742 C 43.9453 -26.0742 42.7734 -26.9043 42.1387 -28.5645 C 41.3574 -30.8105 39.8926 -31.8359 37.4023 -31.8359 C 34.668 -31.8359 32.8125 -29.9805 32.8125 -27.2461 C 32.8125 -26.416 32.9102 -25.6836 33.1543 -24.9512 C 34.6191 -20.3613 39.502 -17.4805 45.8984 -17.4805 Z"/>
  </g>
  <g id="Semibold-S" transform="matrix(1 0 0 1 1996.2 696)">
   <path d="M 47.0703 4.98047 C 69.0918 4.98047 87.3047 -13.1836 87.3047 -35.2539 C 87.3047 -57.2754 69.0918 -75.4883 47.0215 -75.4883 C 25 -75.4883 6.83594 -57.2754 6.83594 -35.2539 C 6.83594 -13.1836 25.0488 4.98047 47.0703 4.98047 Z M 47.0703 -4.58984 C 30.0781 -4.58984 16.4551 -18.2129 16.4551 -35.2539 C 16.4551 -52.2461 30.0293 -65.8691 47.0215 -65.8691 C 64.0625 -65.8691 77.6855 -52.2461 77.7344 -35.2539 C 77.7344 -18.2129 64.0625 -4.58984 47.0703 -4.58984 Z M 45.2637 -17.3828 C 53.6133 -17.3828 58.3008 -21.7773 58.3008 -29.7852 L 58.3008 -48.291 C 58.3008 -51.416 56.6406 -53.3691 53.7109 -53.3691 C 50.8301 -53.3691 49.2188 -51.3672 49.2188 -48.291 L 49.2188 -29.9805 C 49.2188 -26.709 47.8516 -25 45.3613 -25 C 43.2617 -25 41.8945 -25.9766 41.0645 -27.832 C 40.332 -29.834 39.0625 -30.7617 36.9141 -30.7617 C 34.5215 -30.7617 32.8125 -29.1016 32.8125 -26.6602 C 32.8125 -25.8789 32.959 -25.1953 33.1543 -24.4629 C 34.668 -20.1172 39.3066 -17.3828 45.2637 -17.3828 Z"/>
  </g>
  <g id="Medium-S" transform="matrix(1 0 0 1 1699.83 696)">
   <path d="M 46.7285 4.63867 C 68.5547 4.63867 86.6211 -13.4277 86.6211 -35.2539 C 86.6211 -57.0801 68.5059 -75.1465 46.6797 -75.1465 C 24.8535 -75.1465 6.83594 -57.0801 6.83594 -35.2539 C 6.83594 -13.4277 24.9023 4.63867 46.7285 4.63867 Z M 46.7285 -4.00391 C 29.3945 -4.00391 15.5273 -17.9199 15.5273 -35.2539 C 15.5273 -52.5879 29.3457 -66.4551 46.6797 -66.4551 C 64.0137 -66.4551 77.8809 -52.5879 77.9297 -35.2539 C 77.9785 -17.9199 64.0625 -4.00391 46.7285 -4.00391 Z M 44.8242 -17.2852 C 52.9785 -17.2852 57.4219 -21.5332 57.4219 -29.3457 L 57.4219 -48.9258 C 57.4219 -51.7578 56.0059 -53.5156 53.3203 -53.5156 C 50.7324 -53.5156 49.3164 -51.709 49.3164 -48.9258 L 49.3164 -29.4922 C 49.3164 -26.0742 47.7051 -24.1699 45.0195 -24.1699 C 42.7246 -24.1699 41.2109 -25.2441 40.2832 -27.2949 C 39.502 -29.1016 38.3789 -29.9316 36.5723 -29.9316 C 34.375 -29.9316 32.8613 -28.418 32.8613 -26.2207 C 32.8613 -25.4883 32.959 -24.8047 33.2031 -24.1211 C 34.668 -19.9219 39.1113 -17.2852 44.8242 -17.2852 Z"/>
  </g>
  <g id="Regular-S" transform="matrix(1 0 0 1 1403.58 696)">
   <path d="M 46.2402 4.15039 C 67.7734 4.15039 85.6934 -13.7207 85.6934 -35.2539 C 85.6934 -56.7871 67.7246 -74.6582 46.1914 -74.6582 C 24.707 -74.6582 6.83594 -56.7871 6.83594 -35.2539 C 6.83594 -13.7207 24.7559 4.15039 46.2402 4.15039 Z M 46.2402 -3.27148 C 28.5156 -3.27148 14.3555 -17.4805 14.3555 -35.2539 C 14.3555 -53.0273 28.4668 -67.2363 46.1914 -67.2363 C 63.9648 -67.2363 78.1738 -53.0273 78.2227 -35.2539 C 78.2715 -17.4805 64.0137 -3.27148 46.2402 -3.27148 Z M 44.2383 -17.1875 C 52.1973 -17.1875 56.3477 -21.2402 56.3477 -28.8086 L 56.3477 -49.8047 C 56.3477 -52.2461 55.127 -53.7109 52.832 -53.7109 C 50.5371 -53.7109 49.3652 -52.1484 49.3652 -49.8047 L 49.3652 -28.9062 C 49.3652 -25.2441 47.5586 -23.0957 44.6289 -23.0957 C 41.9922 -23.0957 40.332 -24.3164 39.2578 -26.5625 C 38.4766 -28.1738 37.5488 -28.8574 36.084 -28.8574 C 34.1797 -28.8574 32.8613 -27.5391 32.8613 -25.6348 C 32.8613 -24.9512 32.959 -24.3164 33.2031 -23.6816 C 34.668 -19.6777 38.916 -17.1875 44.2383 -17.1875 Z"/>
  </g>
  <g id="Light-S" transform="matrix(1 0 0 1 1107.6 696)">
   <path d="M 45.5078 3.41797 C 66.6992 3.41797 84.2285 -14.0625 84.2285 -35.2539 C 84.2285 -56.4453 66.6504 -73.9258 45.5078 -73.9258 C 24.3164 -73.9258 6.83594 -56.4453 6.83594 -35.2539 C 6.83594 -14.0625 24.3652 3.41797 45.5078 3.41797 Z M 45.5078 -2.29492 C 27.2461 -2.29492 12.5977 -16.9922 12.5977 -35.2539 C 12.5977 -53.5156 27.1973 -68.2129 45.5078 -68.2129 C 63.7695 -68.2129 78.4668 -53.5156 78.5156 -35.2539 C 78.5156 -16.9922 63.8184 -2.29492 45.5078 -2.29492 Z M 43.75 -17.4316 C 50.9277 -17.4316 54.8828 -21.4355 54.8828 -28.418 L 54.8828 -50.2441 C 54.8828 -52.0996 53.9062 -53.2227 52.1484 -53.2227 C 50.3906 -53.2227 49.4629 -52.0508 49.4629 -50.2441 L 49.4629 -28.4668 C 49.4629 -24.5117 47.3633 -22.1191 44.043 -22.1191 C 40.9668 -22.1191 38.8184 -23.7305 37.9883 -26.416 C 37.4023 -27.6855 36.6699 -28.2715 35.498 -28.2715 C 33.9844 -28.2715 33.0078 -27.2461 33.0078 -25.7324 C 33.0078 -25.1465 33.0566 -24.6094 33.252 -24.0723 C 34.4727 -20.1172 38.5742 -17.4316 43.75 -17.4316 Z"/>
  </g>
  <g id="Thin-S" transform="matrix(1 0 0 1 811.867 696)">
   <path d="M 44.5801 2.49023 C 65.2832 2.49023 82.2754 -14.5508 82.2754 -35.2539 C 82.2754 -55.957 65.2344 -72.998 44.5312 -72.998 C 23.8281 -72.998 6.83594 -55.957 6.83594 -35.2539 C 6.83594 -14.5508 23.877 2.49023 44.5801 2.49023 Z M 44.5801 -0.927734 C 25.5859 -0.927734 10.2539 -16.3086 10.2539 -35.2539 C 10.2539 -54.1992 25.5859 -69.5801 44.5312 -69.5801 C 63.5254 -69.5801 78.8574 -54.1992 78.8574 -35.2539 C 78.8574 -16.3086 63.5254 -0.927734 44.5801 -0.927734 Z M 43.1152 -17.7734 C 49.3164 -17.7734 52.9297 -21.6797 52.9297 -27.9297 L 52.9297 -50.7812 C 52.9297 -51.9043 52.3438 -52.5879 51.2695 -52.5879 C 50.2441 -52.5879 49.5605 -51.9043 49.5605 -50.7812 L 49.5605 -27.9785 C 49.5605 -23.5352 47.1191 -20.752 43.2129 -20.752 C 39.5996 -20.752 36.8652 -22.9492 36.2793 -26.1719 C 35.9863 -27.0508 35.498 -27.4414 34.7168 -27.4414 C 33.7402 -27.4414 33.1543 -26.8066 33.1543 -25.8301 C 33.1543 -25.4395 33.2031 -25.0488 33.3008 -24.5605 C 34.2285 -20.6543 38.1348 -17.7734 43.1152 -17.7734 Z"/>
  </g>
  <g id="Ultralight-S" transform="matrix(1 0 0 1 515.644 696)">
   <path d="M 44.043 1.95312 C 64.502 1.95312 81.2988 -14.7949 81.2988 -35.2539 C 81.2988 -55.7129 64.502 -72.4609 44.043 -72.4609 C 23.584 -72.4609 6.83594 -55.7129 6.83594 -35.2539 C 6.83594 -14.7949 23.584 1.95312 44.043 1.95312 Z M 44.043 -0.244141 C 24.7559 -0.244141 9.08203 -15.9668 9.08203 -35.2539 C 9.08203 -54.541 24.7559 -70.2637 44.043 -70.2637 C 63.3789 -70.2637 79.0527 -54.541 79.0527 -35.2539 C 79.0527 -15.9668 63.3789 -0.244141 44.043 -0.244141 Z M 42.7734 -17.9688 C 48.4863 -17.9688 51.9531 -21.8262 51.9531 -27.6855 L 51.9531 -51.123 C 51.9531 -51.8066 51.5137 -52.2949 50.7812 -52.2949 C 50.0977 -52.2949 49.6582 -51.8066 49.6582 -51.123 L 49.6582 -27.6855 C 49.6582 -22.998 47.0215 -20.0684 42.8223 -20.0684 C 38.8672 -20.0684 35.8398 -22.5586 35.4004 -26.0742 C 35.2539 -26.7578 34.9121 -27.0508 34.3262 -27.0508 C 33.6426 -27.0508 33.252 -26.6113 33.252 -25.8789 C 33.252 -25.5859 33.3008 -25.2441 33.3496 -24.8535 C 34.082 -20.9473 37.8906 -17.9688 42.7734 -17.9688 Z"/>
  </g>
 </g>
</svg>
