<?xml version="1.0" encoding="UTF-8"?>
<!--Generator: Apple Native CoreSVG 129-->
<!DOCTYPE svg
PUBLIC "-//W3C//DTD SVG 1.1//EN"
       "http://www.w3.org/Graphics/SVG/1.1/DTD/svg11.dtd">
<svg version="1.1" xmlns="http://www.w3.org/2000/svg" xmlns:xlink="http://www.w3.org/1999/xlink" width="130" height="130">
 <!--glyph: "uni100016.medium", point size: 100.000000, font version: "Version 16.0d9e1", template writer version: "8"-->
 <g id="Symbols">
  <g id="Regular-L" transform="matrix(1 0 0 1 -10 100)">
   <path d="M 74.8535 28.3203 C 109.668 28.3203 138.477 -0.488281 138.477 -35.2539 C 138.477 -70.0684 109.619 -98.877 74.8047 -98.877 C 40.0391 -98.877 11.2793 -70.0684 11.2793 -35.2539 C 11.2793 -0.488281 40.0879 28.3203 74.8535 28.3203 Z M 74.8535 19.2383 C 44.6777 19.2383 20.4102 -5.07812 20.4102 -35.2539 C 20.4102 -65.4785 44.6289 -89.7461 74.8047 -89.7461 C 105.029 -89.7461 129.297 -65.4785 129.346 -35.2539 C 129.395 -5.07812 105.078 19.2383 74.8535 19.2383 Z M 71.9727 -6.00586 C 83.6914 -6.00586 90.0879 -12.5488 90.0879 -23.9746 L 90.0879 -60.0098 C 90.0879 -62.9883 88.5742 -64.7949 85.7422 -64.7949 C 83.0078 -64.7949 81.4941 -62.8906 81.4941 -60.0098 L 81.4941 -24.0723 C 81.4941 -17.4316 78.0273 -13.4277 72.4121 -13.4277 C 67.2852 -13.4277 63.6719 -16.1621 62.3535 -20.6543 C 61.4258 -22.7539 60.2051 -23.6328 58.3496 -23.6328 C 55.957 -23.6328 54.3945 -21.9727 54.3945 -19.5801 C 54.3945 -18.7012 54.4922 -17.8223 54.7852 -16.9434 C 56.7383 -10.4004 63.4766 -6.00586 71.9727 -6.00586 Z"/>
  </g>
  <!-- <g id="Regular-M" transform="matrix(1 0 0 1 -8 90)">
   <path d="M 58.5449 14.5508 C 85.791 14.5508 108.35 -8.05664 108.35 -35.2539 C 108.35 -62.5 85.7422 -85.0586 58.4961 -85.0586 C 31.2988 -85.0586 8.74023 -62.5 8.74023 -35.2539 C 8.74023 -8.05664 31.3477 14.5508 58.5449 14.5508 Z M 58.5449 6.25 C 35.498 6.25 17.0898 -12.207 17.0898 -35.2539 C 17.0898 -58.3008 35.4492 -76.7578 58.4961 -76.7578 C 81.543 -76.7578 100 -58.3008 100.049 -35.2539 C 100.098 -12.207 81.5918 6.25 58.5449 6.25 Z M 56.1523 -12.4023 C 65.7227 -12.4023 70.8984 -17.4805 70.8984 -26.7578 L 70.8984 -54.1016 C 70.8984 -56.8359 69.4824 -58.4961 66.9434 -58.4961 C 64.4531 -58.4961 63.0859 -56.7383 63.0859 -54.1016 L 63.0859 -26.8555 C 63.0859 -21.9727 60.5957 -19.043 56.543 -19.043 C 52.8809 -19.043 50.3906 -20.8984 49.2188 -24.0723 C 48.3887 -25.8789 47.3145 -26.6602 45.6543 -26.6602 C 43.5059 -26.6602 42.041 -25.1953 42.041 -23.0469 C 42.041 -22.2656 42.1875 -21.5332 42.4316 -20.8008 C 44.1406 -15.6738 49.4141 -12.4023 56.1523 -12.4023 Z"/>
  </g> -->
  <!-- <g id="Regular-S" transform="matrix(1 0 0 1 -4 80)">
   <path d="M 46.2402 4.15039 C 67.7734 4.15039 85.6934 -13.7207 85.6934 -35.2539 C 85.6934 -56.7871 67.7246 -74.6582 46.1914 -74.6582 C 24.707 -74.6582 6.83594 -56.7871 6.83594 -35.2539 C 6.83594 -13.7207 24.7559 4.15039 46.2402 4.15039 Z M 46.2402 -3.27148 C 28.5156 -3.27148 14.3555 -17.4805 14.3555 -35.2539 C 14.3555 -53.0273 28.4668 -67.2363 46.1914 -67.2363 C 63.9648 -67.2363 78.1738 -53.0273 78.2227 -35.2539 C 78.2715 -17.4805 64.0137 -3.27148 46.2402 -3.27148 Z M 44.2383 -17.1875 C 52.1973 -17.1875 56.3477 -21.2402 56.3477 -28.8086 L 56.3477 -49.8047 C 56.3477 -52.2461 55.127 -53.7109 52.832 -53.7109 C 50.5371 -53.7109 49.3652 -52.1484 49.3652 -49.8047 L 49.3652 -28.9062 C 49.3652 -25.2441 47.5586 -23.0957 44.6289 -23.0957 C 41.9922 -23.0957 40.332 -24.3164 39.2578 -26.5625 C 38.4766 -28.1738 37.5488 -28.8574 36.084 -28.8574 C 34.1797 -28.8574 32.8613 -27.5391 32.8613 -25.6348 C 32.8613 -24.9512 32.959 -24.3164 33.2031 -23.6816 C 34.668 -19.6777 38.916 -17.1875 44.2383 -17.1875 Z"/>
  </g> -->
 </g>
</svg>
