<svg width="583" height="127" viewBox="0 0 583 127" fill="none" xmlns="http://www.w3.org/2000/svg">
<path d="M20.6953 15.5703C24.9141 15.5703 28.3594 12.125 28.3594 7.97656C28.3594 3.75781 24.9141 0.382812 20.6953 0.382812C16.5469 0.382812 13.1016 3.75781 13.1016 7.97656C13.1016 12.125 16.5469 15.5703 20.6953 15.5703ZM20.6953 26.6094C17.1094 26.6094 14.5781 29.2812 14.5781 33.1484V105.148C14.5781 111.617 12.5391 114.781 6.84375 115.625L6.35156 115.695C2.48438 116.258 0.867188 118.156 0.867188 120.828C0.867188 123.992 3.60938 126.102 8.10938 126.102C19.9219 126.102 26.8125 119.422 26.8125 106.344V33.1484C26.8125 29.2812 24.2812 26.6094 20.6953 26.6094ZM73.6406 102.266C93.8203 102.266 107.461 87.7109 107.461 64.4375C107.461 41.0938 93.8203 26.6094 73.6406 26.6094C53.3906 26.6094 39.75 41.0938 39.75 64.4375C39.75 87.7109 53.3906 102.266 73.6406 102.266ZM73.6406 91.5078C60.7031 91.5078 52.1953 81.6641 52.1953 64.4375C52.1953 47.2109 60.7031 37.3672 73.6406 37.3672C86.5781 37.3672 95.0156 47.2109 95.0156 64.4375C95.0156 81.6641 86.5781 91.5078 73.6406 91.5078ZM125.953 102.266C129.539 102.266 132.07 99.5938 132.07 95.7266V57.9688C132.07 45.5938 139.594 37.4375 151.125 37.4375C162.375 37.4375 167.93 43.9062 167.93 55.7188V95.7266C167.93 99.5938 170.461 102.266 174.047 102.266C177.633 102.266 180.164 99.5938 180.164 95.7266V53.5391C180.164 36.9453 170.883 26.6094 154.852 26.6094C143.531 26.6094 135.727 31.6719 131.648 39.5469H131.367V32.7969C131.367 29.1406 128.977 26.6094 125.602 26.6094C122.227 26.6094 119.836 29.1406 119.836 32.7969V95.7266C119.836 99.5938 122.367 102.266 125.953 102.266ZM217.078 102.266C226.922 102.266 236.273 96.7812 240.633 88.4141H240.914V96.0781C240.914 99.7344 243.305 102.266 246.75 102.266C250.125 102.266 252.516 99.7344 252.516 96.0781V50.4453C252.516 35.8906 241.688 26.6094 224.531 26.6094C212.648 26.6094 201.961 31.8828 197.812 39.8984C196.828 41.6562 196.336 43.4141 196.336 44.9609C196.336 48.2656 198.586 50.4453 201.75 50.4453C204.07 50.4453 205.688 49.5312 206.812 47.4922C210.891 40.25 216.305 37.3672 224.25 37.3672C234.375 37.3672 240.281 42.7109 240.281 51.6406V57.7578L219.258 58.9531C202.383 59.9375 192.75 67.8125 192.75 80.3281C192.75 93.4766 202.523 102.266 217.078 102.266ZM219.82 91.8594C211.031 91.8594 205.195 87.2891 205.195 80.3281C205.195 73.4375 210.82 69.0781 220.664 68.4453L240.281 67.25V73.2266C240.281 83.7734 231.352 91.8594 219.82 91.8594ZM293.438 102.266C310.805 102.266 322.547 93.4766 322.547 80.3984C322.547 69.6406 316.922 64.2969 301.664 60.5703L290.766 57.8984C282.75 55.9297 278.812 52.4141 278.812 47.3516C278.812 41.0938 284.93 36.6641 293.719 36.6641C301.172 36.6641 305.883 39.3359 309.047 45.4531C310.383 47.9844 312.07 48.7578 314.461 48.7578C317.414 48.7578 319.242 46.8594 319.242 43.9766C319.242 43.4141 319.172 42.8516 319.031 42.1484C317.133 33.3594 306.445 26.6094 294.422 26.6094C277.898 26.6094 266.719 35.2578 266.719 47.9844C266.719 58.25 273.539 64.9297 287.672 68.4453L298.852 71.2578C307.078 73.2969 310.102 76.1094 310.102 81.3828C310.102 88.2031 303.773 92.2812 294.422 92.2812C285.07 92.2812 280.711 89.3984 277.055 83C275.648 80.4688 273.891 79.3438 271.711 79.3438C268.547 79.3438 266.156 81.1719 266.156 84.4062C266.156 85.3203 266.297 86.2344 266.719 87.2891C270.234 96.4297 280.43 102.266 293.438 102.266ZM341.25 102.266C344.836 102.266 347.367 99.5938 347.367 95.7266V57.9688C347.367 45.5938 354.891 37.4375 366.422 37.4375C377.672 37.4375 383.227 43.9062 383.227 55.7188V95.7266C383.227 99.5938 385.758 102.266 389.344 102.266C392.93 102.266 395.461 99.5938 395.461 95.7266V53.5391C395.461 36.9453 386.18 26.6094 370.148 26.6094C358.828 26.6094 351.023 31.6719 346.945 39.5469H346.664V32.7969C346.664 29.1406 344.273 26.6094 340.898 26.6094C337.523 26.6094 335.133 29.1406 335.133 32.7969V95.7266C335.133 99.5938 337.664 102.266 341.25 102.266ZM441.727 102.266C455.086 102.266 465.352 96.6406 470.062 86.7266C470.625 85.3906 470.977 84.125 470.977 83.1406C470.977 79.9062 468.797 77.7969 465.562 77.7969C463.664 77.7969 462.258 78.5 460.992 80.2578C455.297 88.5547 449.953 91.6484 441.234 91.6484C428.156 91.6484 420.07 82.5078 420.07 67.7422H465.773C469.992 67.7422 472.523 65.0703 472.523 60.6406C472.523 40.6016 459.375 26.6094 440.672 26.6094C420.492 26.6094 407.484 41.6562 407.484 64.7188C407.484 88.3438 420.141 102.266 441.727 102.266ZM420.141 58.1797C420.914 45.5938 429.07 37.2266 440.461 37.2266C451.781 37.2266 459.586 45.5234 459.867 58.1797H420.141ZM486.234 102.266C488.203 102.266 489.68 101.492 490.805 99.875L509.086 73.1562H509.367L527.508 99.875C528.562 101.492 530.18 102.266 532.148 102.266C535.453 102.266 537.984 99.9453 537.984 96.9219C537.984 95.7266 537.562 94.5312 536.719 93.2656L516.117 63.9453L537 35.3984C537.773 34.3438 538.195 33.0781 538.195 31.8125C538.195 28.8594 535.594 26.6094 532.148 26.6094C530.18 26.6094 528.844 27.4531 527.438 29.4922L509.789 55.2969H509.508L491.438 29.2109C490.102 27.3125 488.906 26.6094 486.797 26.6094C483.422 26.6094 480.82 28.8594 480.82 31.8125C480.82 33.1484 481.242 34.3438 482.086 35.5391L502.758 64.4375L481.664 93.4766C480.891 94.6016 480.469 95.7969 480.469 96.9922C480.469 100.016 482.93 102.266 486.234 102.266ZM555.07 84.125C555.07 95.7969 560.977 101.562 572.789 101.562H573.562C580.383 101.562 582.492 99.5938 582.492 95.8672C582.492 92.9844 580.664 91.3672 576.656 91.0859L575.602 91.0156C569.484 90.5938 567.305 87.6406 567.305 81.4531V37.9297H576.727C580.242 37.9297 582.211 36.1016 582.211 32.8672C582.211 29.7031 580.242 27.875 576.727 27.875H567.305V15.3594C567.305 11.4922 564.773 8.82031 561.188 8.82031C557.602 8.82031 555.07 11.4922 555.07 15.3594V27.875H548.953C545.438 27.875 543.469 29.7031 543.469 32.8672C543.469 36.1016 545.438 37.9297 548.953 37.9297H555.07V84.125Z" fill="#383836"/>
</svg>
